# xmcd CD database file
#
# Track frame offsets:
#	150
#	21675
#	39995
#	56547
#	73092
#	87205
#	103265
#	121402
#	138840
#	152760
#
# Disc length: 2271 seconds
#
# Revision: 0
# Processed by: cddbd v1.5.1PL0 Copyright (c) Steve Scherf et al.
# Submitted via: CDex 1.51
#
DISCID=8808dd0a
DTITLE=Junior Wells - Sings Live At The Golden Bear
DYEAR=1968
DGENRE=Blues
TTITLE0=So Tired (I Could Cry)
TTITLE1=Fever
TTITLE2=The Goat
TTITLE3=My Babe
TTITLE4=Driving Wheel
TTITLE5=Don't Start Me Talking
TTITLE6=How Many More Years
TTITLE7=I'm Ready
TTITLE8=Please, Please,  Please
TTITLE9=Elevate Me Mama
EXTD=YEAR: 1968
EXTT0=
EXTT1=
EXTT2=
EXTT3=
EXTT4=
EXTT5=
EXTT6=
EXTT7=
EXTT8=
EXTT9=
PLAYORDER=
